<mxfile host="app.diagrams.net" modified="2022-11-25T15:09:29.936Z" agent="5.0 (Macintosh; Intel Mac OS X 10_15_7) AppleWebKit/605.1.15 (KHTML, like Gecko) Version/16.1 Safari/605.1.15" version="20.6.0" etag="0TFkHkJb4-rK2Vndb7mi" type="github">
  <diagram id="FT3tnVjXL0j3M3793tQc" name="Page-1">
    <mxGraphModel dx="911" dy="2505" grid="1" gridSize="10" guides="1" tooltips="1" connect="1" arrows="1" fold="1" page="1" pageScale="1" pageWidth="1200" pageHeight="1920" math="0" shadow="0">
      <root>
        <mxCell id="0" />
        <mxCell id="1" parent="0" />
        <mxCell id="hC-1-OmUgKjdwf6_MUCS-40" value="API" style="rounded=1;whiteSpace=wrap;html=1;shadow=0;glass=0;sketch=0;fillStyle=zigzag-line;verticalAlign=top;labelPosition=center;verticalLabelPosition=middle;align=center;" vertex="1" parent="1">
          <mxGeometry x="20" y="380" width="230" height="60" as="geometry" />
        </mxCell>
        <mxCell id="hC-1-OmUgKjdwf6_MUCS-12" value="" style="rounded=1;whiteSpace=wrap;html=1;glass=0;sketch=0;shadow=0;fillStyle=zigzag-line;fillColor=#f5f5f5;fontColor=#333333;strokeColor=#666666;" vertex="1" parent="1">
          <mxGeometry x="215" y="20" width="290" height="330" as="geometry" />
        </mxCell>
        <mxCell id="hC-1-OmUgKjdwf6_MUCS-15" style="edgeStyle=orthogonalEdgeStyle;rounded=0;orthogonalLoop=1;jettySize=auto;html=1;" edge="1" parent="1" source="hC-1-OmUgKjdwf6_MUCS-1" target="hC-1-OmUgKjdwf6_MUCS-8">
          <mxGeometry relative="1" as="geometry" />
        </mxCell>
        <mxCell id="hC-1-OmUgKjdwf6_MUCS-16" style="edgeStyle=orthogonalEdgeStyle;rounded=0;orthogonalLoop=1;jettySize=auto;html=1;" edge="1" parent="1" source="hC-1-OmUgKjdwf6_MUCS-1" target="hC-1-OmUgKjdwf6_MUCS-9">
          <mxGeometry relative="1" as="geometry" />
        </mxCell>
        <mxCell id="hC-1-OmUgKjdwf6_MUCS-35" style="edgeStyle=orthogonalEdgeStyle;rounded=0;orthogonalLoop=1;jettySize=auto;html=1;dashed=1;labelBorderColor=none;" edge="1" parent="1" source="hC-1-OmUgKjdwf6_MUCS-1" target="hC-1-OmUgKjdwf6_MUCS-21">
          <mxGeometry relative="1" as="geometry">
            <Array as="points">
              <mxPoint x="130" y="140" />
              <mxPoint x="600" y="140" />
            </Array>
          </mxGeometry>
        </mxCell>
        <mxCell id="hC-1-OmUgKjdwf6_MUCS-43" value="Event Trigger" style="edgeLabel;html=1;align=center;verticalAlign=middle;resizable=0;points=[];" vertex="1" connectable="0" parent="hC-1-OmUgKjdwf6_MUCS-35">
          <mxGeometry x="0.6214" y="-1" relative="1" as="geometry">
            <mxPoint x="-374" as="offset" />
          </mxGeometry>
        </mxCell>
        <mxCell id="hC-1-OmUgKjdwf6_MUCS-1" value="Scraper&lt;br&gt;[TimerTriger]" style="rounded=1;whiteSpace=wrap;html=1;" vertex="1" parent="1">
          <mxGeometry x="80" y="180" width="100" height="30" as="geometry" />
        </mxCell>
        <mxCell id="hC-1-OmUgKjdwf6_MUCS-2" value="DB" style="shape=cylinder3;whiteSpace=wrap;html=1;boundedLbl=1;backgroundOutline=1;size=15;" vertex="1" parent="1">
          <mxGeometry x="330" y="50" width="60" height="80" as="geometry" />
        </mxCell>
        <mxCell id="hC-1-OmUgKjdwf6_MUCS-7" value="Tables" style="swimlane;fontStyle=0;childLayout=stackLayout;horizontal=1;startSize=30;horizontalStack=0;resizeParent=1;resizeParentMax=0;resizeLast=0;collapsible=1;marginBottom=0;whiteSpace=wrap;html=1;" vertex="1" parent="1">
          <mxGeometry x="290" y="150" width="140" height="150" as="geometry" />
        </mxCell>
        <mxCell id="hC-1-OmUgKjdwf6_MUCS-8" value="Item" style="text;strokeColor=none;fillColor=none;align=left;verticalAlign=middle;spacingLeft=4;spacingRight=4;overflow=hidden;points=[[0,0.5],[1,0.5]];portConstraint=eastwest;rotatable=0;whiteSpace=wrap;html=1;" vertex="1" parent="hC-1-OmUgKjdwf6_MUCS-7">
          <mxGeometry y="30" width="140" height="30" as="geometry" />
        </mxCell>
        <mxCell id="hC-1-OmUgKjdwf6_MUCS-9" value="Category" style="text;strokeColor=none;fillColor=none;align=left;verticalAlign=middle;spacingLeft=4;spacingRight=4;overflow=hidden;points=[[0,0.5],[1,0.5]];portConstraint=eastwest;rotatable=0;whiteSpace=wrap;html=1;" vertex="1" parent="hC-1-OmUgKjdwf6_MUCS-7">
          <mxGeometry y="60" width="140" height="30" as="geometry" />
        </mxCell>
        <mxCell id="hC-1-OmUgKjdwf6_MUCS-10" value="ItemProcessed" style="text;strokeColor=none;fillColor=none;align=left;verticalAlign=middle;spacingLeft=4;spacingRight=4;overflow=hidden;points=[[0,0.5],[1,0.5]];portConstraint=eastwest;rotatable=0;whiteSpace=wrap;html=1;" vertex="1" parent="hC-1-OmUgKjdwf6_MUCS-7">
          <mxGeometry y="90" width="140" height="30" as="geometry" />
        </mxCell>
        <mxCell id="hC-1-OmUgKjdwf6_MUCS-11" value="CategoryProcessed" style="text;strokeColor=none;fillColor=none;align=left;verticalAlign=middle;spacingLeft=4;spacingRight=4;overflow=hidden;points=[[0,0.5],[1,0.5]];portConstraint=eastwest;rotatable=0;whiteSpace=wrap;html=1;" vertex="1" parent="hC-1-OmUgKjdwf6_MUCS-7">
          <mxGeometry y="120" width="140" height="30" as="geometry" />
        </mxCell>
        <mxCell id="hC-1-OmUgKjdwf6_MUCS-26" style="edgeStyle=orthogonalEdgeStyle;rounded=0;orthogonalLoop=1;jettySize=auto;html=1;dashed=1;" edge="1" parent="1" source="hC-1-OmUgKjdwf6_MUCS-21" target="hC-1-OmUgKjdwf6_MUCS-10">
          <mxGeometry relative="1" as="geometry" />
        </mxCell>
        <mxCell id="hC-1-OmUgKjdwf6_MUCS-27" style="edgeStyle=orthogonalEdgeStyle;rounded=0;orthogonalLoop=1;jettySize=auto;html=1;dashed=1;" edge="1" parent="1" source="hC-1-OmUgKjdwf6_MUCS-21" target="hC-1-OmUgKjdwf6_MUCS-11">
          <mxGeometry relative="1" as="geometry" />
        </mxCell>
        <mxCell id="hC-1-OmUgKjdwf6_MUCS-21" value="Processor" style="rounded=1;whiteSpace=wrap;html=1;dashed=1;" vertex="1" parent="1">
          <mxGeometry x="550" y="190" width="100" height="30" as="geometry" />
        </mxCell>
        <mxCell id="hC-1-OmUgKjdwf6_MUCS-24" style="edgeStyle=orthogonalEdgeStyle;rounded=0;orthogonalLoop=1;jettySize=auto;html=1;" edge="1" parent="1" source="hC-1-OmUgKjdwf6_MUCS-8" target="hC-1-OmUgKjdwf6_MUCS-21">
          <mxGeometry relative="1" as="geometry" />
        </mxCell>
        <mxCell id="hC-1-OmUgKjdwf6_MUCS-25" style="edgeStyle=orthogonalEdgeStyle;rounded=0;orthogonalLoop=1;jettySize=auto;html=1;entryX=0;entryY=0.75;entryDx=0;entryDy=0;" edge="1" parent="1" source="hC-1-OmUgKjdwf6_MUCS-9" target="hC-1-OmUgKjdwf6_MUCS-21">
          <mxGeometry relative="1" as="geometry" />
        </mxCell>
        <mxCell id="hC-1-OmUgKjdwf6_MUCS-55" style="edgeStyle=orthogonalEdgeStyle;rounded=0;orthogonalLoop=1;jettySize=auto;html=1;entryX=0.25;entryY=0;entryDx=0;entryDy=0;dashed=1;labelBorderColor=none;" edge="1" parent="1" source="hC-1-OmUgKjdwf6_MUCS-29" target="hC-1-OmUgKjdwf6_MUCS-32">
          <mxGeometry relative="1" as="geometry" />
        </mxCell>
        <mxCell id="hC-1-OmUgKjdwf6_MUCS-29" value="GET (DATA)" style="rounded=1;whiteSpace=wrap;html=1;" vertex="1" parent="1">
          <mxGeometry x="30" y="403" width="100" height="30" as="geometry" />
        </mxCell>
        <mxCell id="hC-1-OmUgKjdwf6_MUCS-30" style="edgeStyle=orthogonalEdgeStyle;rounded=0;orthogonalLoop=1;jettySize=auto;html=1;" edge="1" parent="1" source="hC-1-OmUgKjdwf6_MUCS-10" target="hC-1-OmUgKjdwf6_MUCS-29">
          <mxGeometry relative="1" as="geometry">
            <Array as="points">
              <mxPoint x="40" y="255" />
            </Array>
          </mxGeometry>
        </mxCell>
        <mxCell id="hC-1-OmUgKjdwf6_MUCS-31" style="edgeStyle=orthogonalEdgeStyle;rounded=0;orthogonalLoop=1;jettySize=auto;html=1;" edge="1" parent="1" source="hC-1-OmUgKjdwf6_MUCS-11" target="hC-1-OmUgKjdwf6_MUCS-29">
          <mxGeometry relative="1" as="geometry">
            <Array as="points">
              <mxPoint x="80" y="285" />
            </Array>
          </mxGeometry>
        </mxCell>
        <mxCell id="hC-1-OmUgKjdwf6_MUCS-50" style="edgeStyle=orthogonalEdgeStyle;rounded=0;orthogonalLoop=1;jettySize=auto;html=1;entryX=0.25;entryY=1;entryDx=0;entryDy=0;dashed=1;labelBorderColor=none;" edge="1" parent="1" source="hC-1-OmUgKjdwf6_MUCS-32" target="hC-1-OmUgKjdwf6_MUCS-39">
          <mxGeometry relative="1" as="geometry">
            <Array as="points">
              <mxPoint x="165" y="500" />
              <mxPoint x="165" y="500" />
            </Array>
          </mxGeometry>
        </mxCell>
        <mxCell id="hC-1-OmUgKjdwf6_MUCS-52" value="Cart" style="edgeLabel;html=1;align=center;verticalAlign=middle;resizable=0;points=[];" vertex="1" connectable="0" parent="hC-1-OmUgKjdwf6_MUCS-50">
          <mxGeometry x="-0.5621" relative="1" as="geometry">
            <mxPoint as="offset" />
          </mxGeometry>
        </mxCell>
        <mxCell id="hC-1-OmUgKjdwf6_MUCS-32" value="&lt;div style=&quot;&quot;&gt;Client&lt;/div&gt;" style="rounded=1;whiteSpace=wrap;html=1;shadow=0;glass=0;sketch=0;fillStyle=zigzag-line;align=center;horizontal=1;verticalAlign=top;" vertex="1" parent="1">
          <mxGeometry x="10" y="540" width="250" height="30" as="geometry" />
        </mxCell>
        <mxCell id="hC-1-OmUgKjdwf6_MUCS-47" style="edgeStyle=orthogonalEdgeStyle;rounded=0;orthogonalLoop=1;jettySize=auto;html=1;dashed=1;labelBorderColor=none;" edge="1" parent="1" source="hC-1-OmUgKjdwf6_MUCS-39" target="hC-1-OmUgKjdwf6_MUCS-45">
          <mxGeometry relative="1" as="geometry">
            <Array as="points">
              <mxPoint x="270" y="410" />
              <mxPoint x="270" y="410" />
            </Array>
          </mxGeometry>
        </mxCell>
        <mxCell id="hC-1-OmUgKjdwf6_MUCS-51" style="edgeStyle=orthogonalEdgeStyle;rounded=0;orthogonalLoop=1;jettySize=auto;html=1;entryX=0.823;entryY=-0.006;entryDx=0;entryDy=0;entryPerimeter=0;dashed=1;labelBorderColor=none;" edge="1" parent="1" source="hC-1-OmUgKjdwf6_MUCS-39" target="hC-1-OmUgKjdwf6_MUCS-32">
          <mxGeometry relative="1" as="geometry">
            <Array as="points">
              <mxPoint x="216" y="460" />
              <mxPoint x="216" y="460" />
            </Array>
          </mxGeometry>
        </mxCell>
        <mxCell id="hC-1-OmUgKjdwf6_MUCS-53" value="Cheapest Cart" style="edgeLabel;html=1;align=center;verticalAlign=middle;resizable=0;points=[];" vertex="1" connectable="0" parent="hC-1-OmUgKjdwf6_MUCS-51">
          <mxGeometry x="0.5005" relative="1" as="geometry">
            <mxPoint as="offset" />
          </mxGeometry>
        </mxCell>
        <mxCell id="hC-1-OmUgKjdwf6_MUCS-39" value="GET (CHEAP)" style="rounded=1;whiteSpace=wrap;html=1;dashed=1;" vertex="1" parent="1">
          <mxGeometry x="140" y="403" width="100" height="30" as="geometry" />
        </mxCell>
        <mxCell id="hC-1-OmUgKjdwf6_MUCS-42" value="&lt;h1&gt;&lt;span style=&quot;font-size: 12px; font-weight: 400;&quot;&gt;Dotted lines denote yet to be implemented features&lt;/span&gt;&lt;/h1&gt;&lt;div&gt;&lt;span style=&quot;font-size: 12px; font-weight: 400;&quot;&gt;&lt;br&gt;&lt;/span&gt;&lt;/div&gt;" style="text;html=1;strokeColor=none;fillColor=none;spacing=5;spacingTop=-31;whiteSpace=wrap;overflow=hidden;rounded=0;shadow=0;glass=0;dashed=1;sketch=0;fillStyle=zigzag-line;" vertex="1" parent="1">
          <mxGeometry x="20" y="20" width="190" height="50" as="geometry" />
        </mxCell>
        <mxCell id="hC-1-OmUgKjdwf6_MUCS-56" style="edgeStyle=orthogonalEdgeStyle;rounded=0;orthogonalLoop=1;jettySize=auto;html=1;dashed=1;labelBorderColor=none;" edge="1" parent="1" source="hC-1-OmUgKjdwf6_MUCS-45" target="hC-1-OmUgKjdwf6_MUCS-39">
          <mxGeometry relative="1" as="geometry" />
        </mxCell>
        <mxCell id="hC-1-OmUgKjdwf6_MUCS-45" value="Cart Finder" style="rounded=1;whiteSpace=wrap;html=1;dashed=1;" vertex="1" parent="1">
          <mxGeometry x="310" y="403" width="100" height="30" as="geometry" />
        </mxCell>
        <mxCell id="hC-1-OmUgKjdwf6_MUCS-46" style="edgeStyle=orthogonalEdgeStyle;rounded=0;orthogonalLoop=1;jettySize=auto;html=1;entryX=0.5;entryY=0;entryDx=0;entryDy=0;dashed=1;labelBorderColor=none;" edge="1" parent="1" source="hC-1-OmUgKjdwf6_MUCS-10" target="hC-1-OmUgKjdwf6_MUCS-45">
          <mxGeometry relative="1" as="geometry">
            <Array as="points">
              <mxPoint x="460" y="260" />
              <mxPoint x="460" y="337" />
              <mxPoint x="360" y="337" />
            </Array>
          </mxGeometry>
        </mxCell>
        <mxCell id="hC-1-OmUgKjdwf6_MUCS-54" style="edgeStyle=orthogonalEdgeStyle;rounded=0;orthogonalLoop=1;jettySize=auto;html=1;entryX=0.25;entryY=0;entryDx=0;entryDy=0;dashed=1;labelBorderColor=none;" edge="1" parent="1" source="hC-1-OmUgKjdwf6_MUCS-11" target="hC-1-OmUgKjdwf6_MUCS-45">
          <mxGeometry relative="1" as="geometry">
            <Array as="points">
              <mxPoint x="335" y="320" />
              <mxPoint x="335" y="320" />
            </Array>
          </mxGeometry>
        </mxCell>
      </root>
    </mxGraphModel>
  </diagram>
</mxfile>
